<svg version="1.1" id="Layer_1" xmlns="http://www.w3.org/2000/svg" xmlns:xlink="http://www.w3.org/1999/xlink" x="0px" y="0px"
	 width="100%" viewBox="0 0 369 273" enable-background="new 0 0 369 273" xml:space="preserve">
<path fill="#FFFFFF" opacity="1.000000" stroke="none" 
	d="
M1.000000,272.000000 
	C1.000000,181.759064 1.000000,91.518120 1.000000,1.000000 
	C53.020565,1.000000 105.041626,1.000000 157.641663,1.197824 
	C158.343796,1.685452 158.544083,1.904781 158.859222,2.517527 
	C159.019852,20.636936 159.142807,38.292454 158.785583,55.922764 
	C154.904160,55.897556 151.502884,55.897556 147.861435,55.897556 
	C147.861435,109.181480 147.861435,161.457016 147.406281,213.801498 
	C120.404732,213.858246 93.858330,213.846054 67.406670,213.385864 
	C67.501404,204.687286 67.501404,196.436722 67.501404,188.293457 
	C49.558231,188.293457 32.182194,188.293457 14.469484,188.293457 
	C14.469484,190.228043 14.469484,191.877579 14.068628,193.664978 
	C11.892818,193.888336 10.117865,193.973801 8.306240,194.061035 
	C8.306240,198.823715 8.306240,203.337067 8.306240,207.761658 
	C10.622893,208.017441 12.577133,208.233215 14.514673,208.843338 
	C14.593584,210.544159 14.689194,211.850616 14.623878,213.257996 
	C14.462955,213.358887 14.444172,213.738312 14.034177,213.816986 
	C11.866233,213.895645 10.108284,213.895645 8.360243,213.895645 
	C8.360243,225.385056 8.360243,236.266479 8.360243,247.266617 
	C10.611533,247.503220 12.570320,247.709076 14.473840,248.300507 
	C10.134979,256.445679 5.851388,264.205292 1.418949,271.862122 
	C1.270103,271.759308 1.000000,272.000000 1.000000,272.000000 
z"/>
<path fill="#FFFFFF" opacity="1.000000" stroke="none" 
	d="
M212.000000,1.000000 
	C264.612152,1.000000 317.224274,1.000000 370.000000,1.000000 
	C370.000000,89.020828 370.000000,177.041748 369.622864,265.489197 
	C368.025940,265.659302 366.806152,265.402924 365.362854,264.974487 
	C364.667908,263.789703 364.196503,262.776978 363.796326,261.327576 
	C363.111877,259.974182 362.356262,259.057495 361.359070,257.938232 
	C360.709839,256.809326 360.302155,255.883057 360.212097,254.575500 
	C361.285370,251.913681 362.041016,249.633163 362.774963,247.252319 
	C362.753296,247.152008 362.886841,246.996124 363.268433,246.936554 
	C364.415894,245.329361 365.795929,243.800491 365.843842,242.230942 
	C366.080231,234.486450 366.105713,226.726273 365.838318,218.984314 
	C365.791351,217.625229 363.994537,216.326569 362.908447,214.822113 
	C362.686951,214.397202 362.626190,214.135483 362.741943,213.285004 
	C362.809052,211.555588 362.762909,210.400223 362.689819,209.183151 
	C362.662903,209.121460 362.711517,208.995911 363.110596,208.949921 
	C367.495117,204.756943 367.123169,198.578110 362.523743,195.857986 
	C361.876373,195.464844 361.438263,195.216049 360.958618,194.599762 
	C359.571167,191.931686 360.468689,187.878845 355.567902,187.984131 
	C339.153076,187.987198 323.208923,187.942581 307.266449,188.085831 
	C305.847595,188.098572 304.439728,189.332977 302.627960,190.088074 
	C301.819519,191.486816 301.135864,192.779129 301.046631,194.111252 
	C300.609375,200.639145 300.330322,207.177628 299.534485,213.799622 
	C273.740112,213.849152 248.406570,213.811417 223.075134,213.320755 
	C223.077255,160.762955 223.077255,108.658104 223.077255,55.905144 
	C218.836685,55.905144 215.217377,55.905144 211.713043,55.454979 
	C211.885361,37.003212 211.942688,19.001606 212.000000,1.000000 
z"/>
<path fill="#FEFEFE" opacity="1.000000" stroke="none" 
	d="
M365.586395,265.146545 
	C366.806152,265.402924 368.025940,265.659302 369.622864,265.957825 
	C370.000000,268.663330 370.000000,271.326660 370.000000,273.994995 
	C256.312439,274.000000 142.624878,274.000000 28.396305,273.789490 
	C27.768814,273.247955 27.555107,273.068268 27.276463,272.663757 
	C23.631792,265.652710 19.924833,259.017792 16.038227,252.061325 
	C129.068756,252.061325 241.657791,252.061325 354.848816,252.061325 
	C350.859253,259.223450 347.139709,265.900818 343.240723,272.900299 
	C352.358734,272.900299 360.632385,272.900299 369.450195,272.900299 
	C368.044617,270.079620 366.815521,267.613068 365.586395,265.146545 
z"/>
<path fill="#020202" opacity="1.000000" stroke="none" 
	d="
M211.531342,1.000000 
	C211.942688,19.001606 211.885361,37.003212 211.285721,55.330902 
	C193.584183,55.753983 176.424957,55.850979 159.265747,55.947975 
	C159.142807,38.292454 159.019852,20.636936 158.969803,2.265293 
	C159.028458,1.366111 159.014221,1.183055 159.000000,1.000000 
	C176.354233,1.000000 193.708450,1.000000 211.531342,1.000000 
z"/>
<path fill="#DCDCDC" opacity="1.000000" stroke="none" 
	d="
M27.214174,273.039917 
	C27.555107,273.068268 27.768814,273.247955 27.927647,273.789490 
	C19.666668,274.000000 11.333153,274.022858 3.000345,273.956726 
	C2.331079,273.951416 1.666672,273.333313 1.000002,272.500000 
	C1.000000,272.000000 1.270103,271.759308 1.653511,272.263306 
	C10.429338,272.858185 18.821756,272.949036 27.214174,273.039917 
z"/>
<path fill="#B4B4B4" opacity="1.000000" stroke="none" 
	d="
M158.750000,1.000000 
	C159.014221,1.183055 159.028458,1.366111 158.932129,1.801400 
	C158.544083,1.904781 158.343796,1.685452 158.110321,1.197824 
	C158.000000,1.000000 158.500000,1.000000 158.750000,1.000000 
z"/>
<path fill="#AD4C10" opacity="1.000000" stroke="none" 
	d="
M223.073029,213.773697 
	C248.406570,213.811417 273.740112,213.849152 299.903015,213.887756 
	C301.490051,213.903976 302.247681,213.919327 303.305664,214.220520 
	C320.465790,214.618652 337.325592,214.744812 354.185577,214.795212 
	C354.898865,214.797348 355.614227,214.095947 356.693970,213.779266 
	C358.040894,213.906387 359.022491,213.976532 360.203339,214.415192 
	C360.641083,223.554779 360.982513,232.325134 361.046722,241.097488 
	C361.063080,243.334427 360.200348,245.577805 359.289459,247.804840 
	C245.732330,247.790100 132.627274,247.788208 19.522207,247.792694 
	C17.857838,247.792770 16.193474,247.872421 14.529108,247.914948 
	C12.570320,247.709076 10.611533,247.503220 8.360243,247.266617 
	C8.360243,236.266479 8.360243,225.385056 8.360243,213.895645 
	C10.108284,213.895645 11.866233,213.895645 14.439840,213.913574 
	C15.527603,213.986679 15.799707,214.041824 16.365847,214.379059 
	C32.514030,214.760483 48.368149,214.868866 64.222450,214.922256 
	C64.790962,214.924179 65.361298,214.383255 66.304031,214.023926 
	C66.928635,213.920792 67.179985,213.889069 67.398560,213.866333 
	C67.365791,213.875305 67.311935,213.833878 67.311935,213.833878 
	C93.858330,213.846054 120.404732,213.858246 147.872955,213.913422 
	C157.403168,213.906754 166.011536,213.857117 175.038177,213.763840 
	C182.357910,213.746506 189.259369,213.772812 196.678757,213.863632 
	C205.822128,213.876663 214.447571,213.825180 223.073029,213.773697 
z"/>
<path fill="#B4B4B4" opacity="1.000000" stroke="none" 
	d="
M174.619919,213.807480 
	C166.011536,213.857117 157.403168,213.906754 148.328110,213.844482 
	C147.861435,161.457016 147.861435,109.181480 147.861435,55.897556 
	C151.502884,55.897556 154.904160,55.897556 158.785583,55.922768 
	C176.424957,55.850979 193.584183,55.753983 211.170715,55.781067 
	C215.217377,55.905144 218.836685,55.905144 223.077255,55.905144 
	C223.077255,108.658104 223.077255,160.762955 223.075134,213.320755 
	C214.447571,213.825180 205.822128,213.876663 196.889511,213.450806 
	C196.582352,205.745773 196.582352,198.518082 196.582352,191.524902 
	C188.721390,191.524902 181.501953,191.524902 174.619919,191.524902 
	C174.619919,199.238647 174.619919,206.523071 174.619919,213.807480 
z"/>
<path fill="#141414" opacity="1.000000" stroke="none" 
	d="
M14.473839,248.300507 
	C16.193474,247.872421 17.857838,247.792770 19.522207,247.792694 
	C132.627274,247.788208 245.732330,247.790100 359.343933,247.926086 
	C359.850464,248.060745 360.099152,247.982269 360.095032,248.362457 
	C361.294769,250.854156 356.131927,252.764374 359.894440,254.956772 
	C360.302155,255.883057 360.709839,256.809326 361.464355,258.276855 
	C362.449127,259.800140 363.087128,260.782227 363.725098,261.764282 
	C364.196503,262.776978 364.667908,263.789703 365.362854,264.974487 
	C366.815521,267.613068 368.044617,270.079620 369.450195,272.900299 
	C360.632385,272.900299 352.358734,272.900299 343.240723,272.900299 
	C347.139709,265.900818 350.859253,259.223450 354.848816,252.061325 
	C241.657791,252.061325 129.068756,252.061325 16.038227,252.061325 
	C19.924833,259.017792 23.631792,265.652710 27.276463,272.663757 
	C18.821756,272.949036 10.429338,272.858185 1.802358,272.366119 
	C5.851388,264.205292 10.134979,256.445679 14.473839,248.300507 
z"/>
<path fill="#010101" opacity="1.000000" stroke="none" 
	d="
M67.406670,213.385864 
	C67.311935,213.833878 67.365791,213.875305 67.058838,213.562469 
	C49.429523,213.218781 32.107162,213.187943 14.784803,213.157104 
	C14.689194,211.850616 14.593584,210.544159 14.597927,208.352661 
	C14.621748,202.820786 14.545616,198.173950 14.469484,193.527115 
	C14.469484,191.877579 14.469484,190.228043 14.469484,188.293457 
	C32.182194,188.293457 49.558231,188.293457 67.501404,188.293457 
	C67.501404,196.436722 67.501404,204.687286 67.406670,213.385864 
z"/>
<path fill="#5A5654" opacity="1.000000" stroke="none" 
	d="
M14.068628,193.664978 
	C14.545616,198.173950 14.621748,202.820786 14.614626,207.958313 
	C12.577133,208.233215 10.622893,208.017441 8.306240,207.761658 
	C8.306240,203.337067 8.306240,198.823715 8.306240,194.061035 
	C10.117865,193.973801 11.892818,193.888336 14.068628,193.664978 
z"/>
<path fill="#5A5654" opacity="1.000000" stroke="none" 
	d="
M14.623879,213.257996 
	C32.107162,213.187943 49.429523,213.218781 67.091606,213.553497 
	C67.179985,213.889069 66.928635,213.920792 65.844238,213.983887 
	C48.698074,214.042480 32.384945,214.069733 16.071812,214.096970 
	C15.799707,214.041824 15.527603,213.986679 14.849834,213.834915 
	C14.444172,213.738312 14.462955,213.358887 14.623879,213.257996 
z"/>
<path fill="#010101" opacity="1.000000" stroke="none" 
	d="
M303.026764,190.000000 
	C304.439728,189.332977 305.847595,188.098572 307.266449,188.085831 
	C323.208923,187.942581 339.153076,187.987198 355.676331,188.395218 
	C356.274933,190.781235 356.294006,192.753372 356.205017,195.085541 
	C356.181396,195.938354 356.265808,196.431137 356.239227,197.378387 
	C356.202393,201.247559 356.276520,204.662231 356.255249,208.439926 
	C356.209320,209.289612 356.258820,209.776276 356.306885,210.624176 
	C356.234985,211.699463 356.164551,212.413513 355.619751,213.126953 
	C337.915955,213.052338 320.686493,212.978317 303.384277,212.447372 
	C303.216614,204.660309 303.121674,197.330170 303.026764,190.000000 
z"/>
<path fill="#FEFEFE" opacity="1.000000" stroke="none" 
	d="
M363.005829,215.000000 
	C363.994537,216.326569 365.791351,217.625229 365.838318,218.984314 
	C366.105713,226.726273 366.080231,234.486450 365.843842,242.230942 
	C365.795929,243.800491 364.415894,245.329361 363.233063,246.469299 
	C362.879364,235.707748 362.942596,225.353882 363.005829,215.000000 
z"/>
<path fill="#BE6D3D" opacity="1.000000" stroke="none" 
	d="
M362.908447,214.822113 
	C362.942596,225.353882 362.879364,235.707748 362.851501,246.528870 
	C362.886841,246.996124 362.753296,247.152008 362.441956,247.350708 
	C361.453491,247.693695 360.776306,247.837982 360.099152,247.982269 
	C360.099152,247.982269 359.850464,248.060745 359.795990,247.939484 
	C360.200348,245.577805 361.063080,243.334427 361.046722,241.097488 
	C360.982513,232.325134 360.641083,223.554779 360.448975,214.302750 
	C361.206482,213.834213 361.917572,213.846634 362.628693,213.859055 
	C362.626190,214.135483 362.686951,214.397202 362.908447,214.822113 
z"/>
<path fill="#FEFEFE" opacity="1.000000" stroke="none" 
	d="
M302.627960,190.088089 
	C303.121674,197.330170 303.216614,204.660309 303.225952,212.684692 
	C303.095337,213.564178 303.050354,213.749420 303.005341,213.934677 
	C302.247681,213.919327 301.490051,213.903976 300.363892,213.800507 
	C300.330322,207.177628 300.609375,200.639145 301.046631,194.111252 
	C301.135864,192.779129 301.819519,191.486816 302.627960,190.088089 
z"/>
<path fill="#676768" opacity="1.000000" stroke="none" 
	d="
M356.350220,196.923920 
	C356.265808,196.431137 356.181396,195.938354 356.586945,195.196518 
	C358.384644,194.954041 359.692413,194.960648 361.000153,194.967255 
	C361.438263,195.216049 361.876373,195.464844 362.472198,196.318741 
	C362.657104,200.947861 362.684326,204.971893 362.711548,208.995911 
	C362.711517,208.995911 362.662903,209.121460 362.304138,209.306061 
	C360.066345,209.748093 358.187317,210.005524 356.308319,210.262970 
	C356.258820,209.776276 356.209320,209.289612 356.659821,208.431366 
	C363.556061,208.236969 360.426819,203.366013 360.978546,200.600372 
	C361.740356,196.781540 358.935822,196.854034 356.350220,196.923920 
z"/>
<path fill="#FEFEFE" opacity="1.000000" stroke="none" 
	d="
M363.110596,208.949921 
	C362.684326,204.971893 362.657104,200.947861 362.681458,196.463089 
	C367.123169,198.578110 367.495117,204.756943 363.110596,208.949921 
z"/>
<path fill="#FEFEFE" opacity="1.000000" stroke="none" 
	d="
M360.958618,194.599762 
	C359.692413,194.960648 358.384644,194.954041 356.695007,194.836472 
	C356.294006,192.753372 356.274933,190.781235 356.147430,188.398010 
	C360.468689,187.878845 359.571167,191.931686 360.958618,194.599762 
z"/>
<path fill="#FEFEFE" opacity="1.000000" stroke="none" 
	d="
M356.306885,210.624191 
	C358.187317,210.005524 360.066345,209.748093 362.331055,209.367737 
	C362.762909,210.400223 362.809052,211.555588 362.741943,213.285004 
	C361.917572,213.846634 361.206482,213.834213 360.249725,213.934235 
	C359.022491,213.976532 358.040894,213.906387 356.722351,213.595581 
	C356.385376,213.354904 356.094116,213.127563 356.094116,213.127563 
	C356.164551,212.413513 356.234985,211.699463 356.306885,210.624191 
z"/>
<path fill="#FEFEFE" opacity="1.000000" stroke="none" 
	d="
M360.095032,248.362457 
	C360.776306,247.837982 361.453491,247.693695 362.463623,247.451019 
	C362.041016,249.633163 361.285370,251.913681 360.212097,254.575500 
	C356.131927,252.764374 361.294769,250.854156 360.095032,248.362457 
z"/>
<path fill="#FEFEFE" opacity="1.000000" stroke="none" 
	d="
M363.796326,261.327576 
	C363.087128,260.782227 362.449127,259.800140 361.705872,258.479431 
	C362.356262,259.057495 363.111877,259.974182 363.796326,261.327576 
z"/>
<path fill="#0B0B0B" opacity="1.000000" stroke="none" 
	d="
M175.038177,213.763840 
	C174.619919,206.523071 174.619919,199.238647 174.619919,191.524902 
	C181.501953,191.524902 188.721390,191.524902 196.582352,191.524902 
	C196.582352,198.518082 196.582352,205.745773 196.371597,213.386292 
	C189.259369,213.772812 182.357910,213.746506 175.038177,213.763840 
M189.218582,208.874466 
	C189.621994,205.752243 190.025421,202.630035 190.473587,199.161438 
	C186.808060,199.161438 184.106766,199.161438 181.161392,199.161438 
	C181.161392,202.534866 181.161392,205.568268 181.161392,209.104797 
	C183.759842,209.104797 186.034256,209.104797 189.218582,208.874466 
z"/>
<path fill="#82563B" opacity="1.000000" stroke="none" 
	d="
M355.619751,213.126953 
	C356.094116,213.127563 356.385376,213.354904 356.356995,213.538605 
	C355.614227,214.095947 354.898865,214.797348 354.185577,214.795212 
	C337.325592,214.744812 320.465790,214.618652 303.305664,214.220520 
	C303.050354,213.749420 303.095337,213.564178 303.298706,213.141602 
	C320.686493,212.978317 337.915955,213.052338 355.619751,213.126953 
z"/>
<path fill="#BC5D22" opacity="1.000000" stroke="none" 
	d="
M16.365847,214.379059 
	C32.384945,214.069733 48.698074,214.042480 65.470993,214.055283 
	C65.361298,214.383255 64.790962,214.924179 64.222450,214.922256 
	C48.368149,214.868866 32.514030,214.760483 16.365847,214.379059 
z"/>
<path fill="#555555" opacity="1.000000" stroke="none" 
	d="
M356.239197,197.378387 
	C358.935822,196.854034 361.740356,196.781540 360.978546,200.600372 
	C360.426819,203.366013 363.556061,208.236969 356.755249,208.068359 
	C356.276520,204.662231 356.202393,201.247559 356.239197,197.378387 
z"/>
<path fill="#515151" opacity="1.000000" stroke="none" 
	d="
M188.763626,208.989624 
	C186.034256,209.104797 183.759842,209.104797 181.161392,209.104797 
	C181.161392,205.568268 181.161392,202.534866 181.161392,199.161438 
	C184.106766,199.161438 186.808060,199.161438 190.473587,199.161438 
	C190.025421,202.630035 189.621994,205.752243 188.763626,208.989624 
z"/>
</svg>